<?xml version="1.0" encoding="us-ascii" standalone="no"?><svg xmlns="http://www.w3.org/2000/svg" xmlns:xlink="http://www.w3.org/1999/xlink" contentStyleType="text/css" height="2018px" preserveAspectRatio="none" style="width:1254px;height:2018px;background:#FFFFFF;" version="1.1" viewBox="0 0 1254 2018" width="1254px" zoomAndPan="magnify"><defs/><g><text fill="#000000" font-family="sans-serif" font-size="14" font-weight="bold" lengthAdjust="spacing" textLength="483" x="378.75" y="24.5332">Staging Deployment CI/CD Pipeline via Argo Workflows State Diagram</text><g id="IDLE"><rect fill="#F1F1F1" height="52.7031" rx="12.5" ry="12.5" style="stroke:#181818;stroke-width:0.5;" width="202" x="697.5" y="125.6094"/><line style="stroke:#181818;stroke-width:0.5;" x1="697.5" x2="899.5" y1="153.2188" y2="153.2188"/><text fill="#000000" font-family="sans-serif" font-size="14" lengthAdjust="spacing" textLength="30" x="783.5" y="145.1426">IDLE</text><text fill="#000000" font-family="sans-serif" font-size="12" lengthAdjust="spacing" textLength="182" x="702.5" y="170.6758">System is idle, waiting for actions</text></g><g id="WORKFLOW_PENDING_START"><rect fill="#F1F1F1" height="52.7031" rx="12.5" ry="12.5" style="stroke:#181818;stroke-width:0.5;" width="226" x="685.5" y="256.6094"/><line style="stroke:#181818;stroke-width:0.5;" x1="685.5" x2="911.5" y1="284.2188" y2="284.2188"/><text fill="#000000" font-family="sans-serif" font-size="14" lengthAdjust="spacing" textLength="206" x="695.5" y="276.1426">WORKFLOW_PENDING_START</text><text fill="#000000" font-family="sans-serif" font-size="12" lengthAdjust="spacing" textLength="201" x="690.5" y="301.6758">PR created, waiting for workflow start</text></g><g id="WORKFLOW_STARTING"><rect fill="#F1F1F1" height="52.7031" rx="12.5" ry="12.5" style="stroke:#181818;stroke-width:0.5;" width="200" x="544.5" y="387.6094"/><line style="stroke:#181818;stroke-width:0.5;" x1="544.5" x2="744.5" y1="415.2188" y2="415.2188"/><text fill="#000000" font-family="sans-serif" font-size="14" lengthAdjust="spacing" textLength="161" x="564" y="407.1426">WORKFLOW_STARTING</text><text fill="#000000" font-family="sans-serif" font-size="12" lengthAdjust="spacing" textLength="180" x="549.5" y="432.6758">Argo Workflows starting workflow</text></g><g id="PR_POLICY_CHECKING"><rect fill="#F1F1F1" height="52.7031" rx="12.5" ry="12.5" style="stroke:#181818;stroke-width:0.5;" width="211" x="589" y="518.6094"/><line style="stroke:#181818;stroke-width:0.5;" x1="589" x2="800" y1="546.2188" y2="546.2188"/><text fill="#000000" font-family="sans-serif" font-size="14" lengthAdjust="spacing" textLength="155" x="617" y="538.1426">PR_POLICY_CHECKING</text><text fill="#000000" font-family="sans-serif" font-size="12" lengthAdjust="spacing" textLength="191" x="594" y="563.6758">Argo Workflows checking PR policy</text></g><g id="PR_POLICY_FAILED"><rect fill="#F1F1F1" height="52.7031" rx="12.5" ry="12.5" style="stroke:#181818;stroke-width:0.5;" width="153" x="843" y="649.6094"/><line style="stroke:#181818;stroke-width:0.5;" x1="843" x2="996" y1="677.2188" y2="677.2188"/><text fill="#000000" font-family="sans-serif" font-size="14" lengthAdjust="spacing" textLength="133" x="853" y="669.1426">PR_POLICY_FAILED</text><text fill="#000000" font-family="sans-serif" font-size="12" lengthAdjust="spacing" textLength="119" x="848" y="694.6758">PR policy check failed</text></g><g id="PR_POLICY_PASSED"><rect fill="#F1F1F1" height="52.7031" rx="12.5" ry="12.5" style="stroke:#181818;stroke-width:0.5;" width="160" x="614.5" y="649.6094"/><line style="stroke:#181818;stroke-width:0.5;" x1="614.5" x2="774.5" y1="677.2188" y2="677.2188"/><text fill="#000000" font-family="sans-serif" font-size="14" lengthAdjust="spacing" textLength="140" x="624.5" y="669.1426">PR_POLICY_PASSED</text><text fill="#000000" font-family="sans-serif" font-size="12" lengthAdjust="spacing" textLength="131" x="619.5" y="694.6758">PR policy check passed</text></g><g id="UNIT_TESTS_RUNNING"><rect fill="#F1F1F1" height="52.7031" rx="12.5" ry="12.5" style="stroke:#181818;stroke-width:0.5;" width="362" x="513.5" y="780.6094"/><line style="stroke:#181818;stroke-width:0.5;" x1="513.5" x2="875.5" y1="808.2188" y2="808.2188"/><text fill="#000000" font-family="sans-serif" font-size="14" lengthAdjust="spacing" textLength="151" x="619" y="800.1426">UNIT_TESTS_RUNNING</text><text fill="#000000" font-family="sans-serif" font-size="12" lengthAdjust="spacing" textLength="342" x="518.5" y="825.6758">GitHub Actions running unit tests (triggered by Argo Workflows)</text></g><g id="UNIT_TESTS_FAILED"><rect fill="#F1F1F1" height="52.7031" rx="12.5" ry="12.5" style="stroke:#181818;stroke-width:0.5;" width="159" x="737" y="911.6094"/><line style="stroke:#181818;stroke-width:0.5;" x1="737" x2="896" y1="939.2188" y2="939.2188"/><text fill="#000000" font-family="sans-serif" font-size="14" lengthAdjust="spacing" textLength="139" x="747" y="931.1426">UNIT_TESTS_FAILED</text><text fill="#000000" font-family="sans-serif" font-size="12" lengthAdjust="spacing" textLength="85" x="742" y="956.6758">Unit tests failed</text></g><g id="INTEGRATION_TESTS_RUNNING"><rect fill="#F1F1F1" height="52.7031" rx="12.5" ry="12.5" style="stroke:#181818;stroke-width:0.5;" width="400" x="223.5" y="911.6094"/><line style="stroke:#181818;stroke-width:0.5;" x1="223.5" x2="623.5" y1="939.2188" y2="939.2188"/><text fill="#000000" font-family="sans-serif" font-size="14" lengthAdjust="spacing" textLength="213" x="317" y="931.1426">INTEGRATION_TESTS_RUNNING</text><text fill="#000000" font-family="sans-serif" font-size="12" lengthAdjust="spacing" textLength="380" x="228.5" y="956.6758">GitHub Actions running integration tests (triggered by Argo Workflows)</text></g><g id="INTEGRATION_TESTS_FAILED"><rect fill="#F1F1F1" height="52.7031" rx="12.5" ry="12.5" style="stroke:#181818;stroke-width:0.5;" width="221" x="482" y="1042.6094"/><line style="stroke:#181818;stroke-width:0.5;" x1="482" x2="703" y1="1070.2188" y2="1070.2188"/><text fill="#000000" font-family="sans-serif" font-size="14" lengthAdjust="spacing" textLength="201" x="492" y="1062.1426">INTEGRATION_TESTS_FAILED</text><text fill="#000000" font-family="sans-serif" font-size="12" lengthAdjust="spacing" textLength="121" x="487" y="1087.6758">Integration tests failed</text></g><g id="TESTS_PASSED"><rect fill="#F1F1F1" height="52.7031" rx="12.5" ry="12.5" style="stroke:#181818;stroke-width:0.5;" width="128" x="173.5" y="1042.6094"/><line style="stroke:#181818;stroke-width:0.5;" x1="173.5" x2="301.5" y1="1070.2188" y2="1070.2188"/><text fill="#000000" font-family="sans-serif" font-size="14" lengthAdjust="spacing" textLength="108" x="183.5" y="1062.1426">TESTS_PASSED</text><text fill="#000000" font-family="sans-serif" font-size="12" lengthAdjust="spacing" textLength="88" x="178.5" y="1087.6758">All tests passed</text></g><g id="IMAGE_PUBLISHING"><rect fill="#F1F1F1" height="52.7031" rx="12.5" ry="12.5" style="stroke:#181818;stroke-width:0.5;" width="242" x="91.5" y="1173.6094"/><line style="stroke:#181818;stroke-width:0.5;" x1="91.5" x2="333.5" y1="1201.2188" y2="1201.2188"/><text fill="#000000" font-family="sans-serif" font-size="14" lengthAdjust="spacing" textLength="130" x="147.5" y="1193.1426">IMAGE_PUBLISHING</text><text fill="#000000" font-family="sans-serif" font-size="12" lengthAdjust="spacing" textLength="222" x="96.5" y="1218.6758">GitHub Actions publishing Docker image</text></g><g id="DEPLOYMENT_PENDING"><rect fill="#F1F1F1" height="52.7031" rx="12.5" ry="12.5" style="stroke:#181818;stroke-width:0.5;" width="183" x="121" y="1304.6094"/><line style="stroke:#181818;stroke-width:0.5;" x1="121" x2="304" y1="1332.2188" y2="1332.2188"/><text fill="#000000" font-family="sans-serif" font-size="14" lengthAdjust="spacing" textLength="162" x="131.5" y="1324.1426">DEPLOYMENT_PENDING</text><text fill="#000000" font-family="sans-serif" font-size="12" lengthAdjust="spacing" textLength="163" x="126" y="1349.6758">Argo CD detecting new image</text></g><g id="DEPLOYMENT_IN_PROGRESS"><rect fill="#F1F1F1" height="52.7031" rx="12.5" ry="12.5" style="stroke:#181818;stroke-width:0.5;" width="220" x="102.5" y="1435.6094"/><line style="stroke:#181818;stroke-width:0.5;" x1="102.5" x2="322.5" y1="1463.2188" y2="1463.2188"/><text fill="#000000" font-family="sans-serif" font-size="14" lengthAdjust="spacing" textLength="200" x="112.5" y="1455.1426">DEPLOYMENT_IN_PROGRESS</text><text fill="#000000" font-family="sans-serif" font-size="12" lengthAdjust="spacing" textLength="171" x="107.5" y="1480.6758">Argo CD deploying new version</text></g><g id="DEPLOYMENT_SUCCESSFUL"><rect fill="#F1F1F1" height="52.7031" rx="12.5" ry="12.5" style="stroke:#181818;stroke-width:0.5;" width="218" x="103.5" y="1566.6094"/><line style="stroke:#181818;stroke-width:0.5;" x1="103.5" x2="321.5" y1="1594.2188" y2="1594.2188"/><text fill="#000000" font-family="sans-serif" font-size="14" lengthAdjust="spacing" textLength="193" x="116" y="1586.1426">DEPLOYMENT_SUCCESSFUL</text><text fill="#000000" font-family="sans-serif" font-size="12" lengthAdjust="spacing" textLength="198" x="108.5" y="1611.6758">Deployment completed successfully</text></g><g id="BA_TESTS_RUNNING"><rect fill="#F1F1F1" height="52.7031" rx="12.5" ry="12.5" style="stroke:#181818;stroke-width:0.5;" width="198" x="113.5" y="1697.6094"/><line style="stroke:#181818;stroke-width:0.5;" x1="113.5" x2="311.5" y1="1725.2188" y2="1725.2188"/><text fill="#000000" font-family="sans-serif" font-size="14" lengthAdjust="spacing" textLength="139" x="143" y="1717.1426">BA_TESTS_RUNNING</text><text fill="#000000" font-family="sans-serif" font-size="12" lengthAdjust="spacing" textLength="178" x="118.5" y="1742.6758">Argo Workflows running BA tests</text></g><g id="BA_TESTS_FAILED"><rect fill="#F1F1F1" height="52.7031" rx="12.5" ry="12.5" style="stroke:#181818;stroke-width:0.5;" width="147" x="333" y="1828.6094"/><line style="stroke:#181818;stroke-width:0.5;" x1="333" x2="480" y1="1856.2188" y2="1856.2188"/><text fill="#000000" font-family="sans-serif" font-size="14" lengthAdjust="spacing" textLength="127" x="343" y="1848.1426">BA_TESTS_FAILED</text><text fill="#000000" font-family="sans-serif" font-size="12" lengthAdjust="spacing" textLength="78" x="338" y="1873.6758">BA tests failed</text></g><g id="BA_TESTS_PASSED"><rect fill="#F1F1F1" height="52.7031" rx="12.5" ry="12.5" style="stroke:#181818;stroke-width:0.5;" width="154" x="11.5" y="1828.6094"/><line style="stroke:#181818;stroke-width:0.5;" x1="11.5" x2="165.5" y1="1856.2188" y2="1856.2188"/><text fill="#000000" font-family="sans-serif" font-size="14" lengthAdjust="spacing" textLength="134" x="21.5" y="1848.1426">BA_TESTS_PASSED</text><text fill="#000000" font-family="sans-serif" font-size="12" lengthAdjust="spacing" textLength="90" x="16.5" y="1873.6758">BA tests passed</text></g><g id="READY_FOR_MERGE"><rect fill="#F1F1F1" height="52.7031" rx="12.5" ry="12.5" style="stroke:#181818;stroke-width:0.5;" width="163" x="7" y="1959.6094"/><line style="stroke:#181818;stroke-width:0.5;" x1="7" x2="170" y1="1987.2188" y2="1987.2188"/><text fill="#000000" font-family="sans-serif" font-size="14" lengthAdjust="spacing" textLength="143" x="17" y="1979.1426">READY_FOR_MERGE</text><text fill="#000000" font-family="sans-serif" font-size="12" lengthAdjust="spacing" textLength="119" x="12" y="2004.6758">PR is ready for merge</text></g><g id="WORKFLOW_CANCELLED"><rect fill="#F1F1F1" height="52.7031" rx="12.5" ry="12.5" style="stroke:#181818;stroke-width:0.5;" width="194" x="514.5" y="1959.6094"/><line style="stroke:#181818;stroke-width:0.5;" x1="514.5" x2="708.5" y1="1987.2188" y2="1987.2188"/><text fill="#000000" font-family="sans-serif" font-size="14" lengthAdjust="spacing" textLength="174" x="524.5" y="1979.1426">WORKFLOW_CANCELLED</text><text fill="#000000" font-family="sans-serif" font-size="12" lengthAdjust="spacing" textLength="106" x="519.5" y="2004.6758">Workflow cancelled</text></g><ellipse cx="798.5" cy="54.6094" fill="#222222" rx="10" ry="10" style="stroke:#222222;stroke-width:1.0;"/><!--link *start* to IDLE--><g id="link_*start*_IDLE"><path d="M798.5,64.7694 C798.5,78.5894 798.5,99.2794 798.5,119.3494 " fill="none" id="*start*-to-IDLE" style="stroke:#181818;stroke-width:1.0;"/><polygon fill="#181818" points="798.5,125.3494,802.5,116.3494,798.5,120.3494,794.5,116.3494,798.5,125.3494" style="stroke:#181818;stroke-width:1.0;"/></g><!--link IDLE to WORKFLOW_PENDING_START--><g id="link_IDLE_WORKFLOW_PENDING_START"><path d="M798.5,178.9094 C798.5,201.3994 798.5,227.8694 798.5,250.3594 " fill="none" id="IDLE-to-WORKFLOW_PENDING_START" style="stroke:#181818;stroke-width:1.0;"/><polygon fill="#181818" points="798.5,256.3594,802.5,247.3594,798.5,251.3594,794.5,247.3594,798.5,256.3594" style="stroke:#181818;stroke-width:1.0;"/><text fill="#000000" font-family="sans-serif" font-size="13" lengthAdjust="spacing" textLength="163" x="799.5" y="223.1045">Developer creates a new PR</text></g><!--link WORKFLOW_PENDING_START to WORKFLOW_STARTING--><g id="link_WORKFLOW_PENDING_START_WORKFLOW_STARTING"><path d="M685.12,298.7594 C662.22,307.1094 640.81,319.9494 626.5,339.6094 C616.37,353.5194 618.7314,367.0265 625.9814,382.1865 " fill="none" id="WORKFLOW_PENDING_START-to-WORKFLOW_STARTING" style="stroke:#181818;stroke-width:1.0;"/><polygon fill="#181818" points="628.57,387.5994,628.2957,377.7543,626.4128,383.0887,621.0785,381.2058,628.57,387.5994" style="stroke:#181818;stroke-width:1.0;"/><text fill="#000000" font-family="sans-serif" font-size="13" lengthAdjust="spacing" textLength="314" x="627.5" y="354.1045">Developer starts workflow with environment name input</text></g><!--link WORKFLOW_STARTING to PR_POLICY_CHECKING--><g id="link_WORKFLOW_STARTING_PR_POLICY_CHECKING"><path d="M654.5,440.9094 C663.22,463.3994 673.631,490.2752 682.351,512.7652 " fill="none" id="WORKFLOW_STARTING-to-PR_POLICY_CHECKING" style="stroke:#181818;stroke-width:1.0;"/><polygon fill="#181818" points="684.52,518.3594,684.9959,508.522,682.7125,513.6975,677.537,511.4141,684.52,518.3594" style="stroke:#181818;stroke-width:1.0;"/><text fill="#000000" font-family="sans-serif" font-size="13" lengthAdjust="spacing" textLength="237" x="673.5" y="485.1045">Argo Workflows triggers PR policy check</text></g><!--link PR_POLICY_CHECKING to PR_POLICY_FAILED--><g id="link_PR_POLICY_CHECKING_PR_POLICY_FAILED"><path d="M749.29,571.6694 C767.71,580.6894 788.22,591.1794 806.5,601.6094 C832.52,616.4494 855.7947,631.4759 877.5447,646.1359 " fill="none" id="PR_POLICY_CHECKING-to-PR_POLICY_FAILED" style="stroke:#181818;stroke-width:1.0;"/><polygon fill="#181818" points="882.52,649.4894,877.2926,641.1422,878.3739,646.6948,872.8213,647.776,882.52,649.4894" style="stroke:#181818;stroke-width:1.0;"/><text fill="#000000" font-family="sans-serif" font-size="13" lengthAdjust="spacing" textLength="90" x="836.5" y="616.1045">PR policy failed</text></g><!--link PR_POLICY_FAILED to WORKFLOW_PENDING_START--><g id="link_PR_POLICY_FAILED_WORKFLOW_PENDING_START"><path d="M931.57,649.5694 C958.05,589.4294 1013.73,436.6294 946.5,339.6094 C937.59,326.7494 930.5593,319.7754 916.8493,312.1854 " fill="none" id="PR_POLICY_FAILED-to-WORKFLOW_PENDING_START" style="stroke:#181818;stroke-width:1.0;"/><polygon fill="#181818" points="911.6,309.2794,917.5365,317.138,915.9744,311.7011,921.4113,310.1389,911.6,309.2794" style="stroke:#181818;stroke-width:1.0;"/><text fill="#000000" font-family="sans-serif" font-size="13" lengthAdjust="spacing" textLength="267" x="979.5" y="485.1045">Developer resolves issues and retries workflow</text></g><!--link PR_POLICY_CHECKING to PR_POLICY_PASSED--><g id="link_PR_POLICY_CHECKING_PR_POLICY_PASSED"><path d="M694.5,571.9094 C694.5,594.3994 694.5,620.8694 694.5,643.3594 " fill="none" id="PR_POLICY_CHECKING-to-PR_POLICY_PASSED" style="stroke:#181818;stroke-width:1.0;"/><polygon fill="#181818" points="694.5,649.3594,698.5,640.3594,694.5,644.3594,690.5,640.3594,694.5,649.3594" style="stroke:#181818;stroke-width:1.0;"/><text fill="#000000" font-family="sans-serif" font-size="13" lengthAdjust="spacing" textLength="102" x="695.5" y="616.1045">PR policy passed</text></g><!--link PR_POLICY_PASSED to UNIT_TESTS_RUNNING--><g id="link_PR_POLICY_PASSED_UNIT_TESTS_RUNNING"><path d="M694.5,702.9094 C694.5,725.3994 694.5,751.8694 694.5,774.3594 " fill="none" id="PR_POLICY_PASSED-to-UNIT_TESTS_RUNNING" style="stroke:#181818;stroke-width:1.0;"/><polygon fill="#181818" points="694.5,780.3594,698.5,771.3594,694.5,775.3594,690.5,771.3594,694.5,780.3594" style="stroke:#181818;stroke-width:1.0;"/><text fill="#000000" font-family="sans-serif" font-size="13" lengthAdjust="spacing" textLength="325" x="695.5" y="747.1045">Argo Workflows triggers GitHub Actions to run unit tests</text></g><!--link UNIT_TESTS_RUNNING to UNIT_TESTS_FAILED--><g id="link_UNIT_TESTS_RUNNING_UNIT_TESTS_FAILED"><path d="M817.03,833.6494 C830.52,841.2094 842.57,850.9794 851.5,863.6094 C861.94,878.3794 856.862,892.0142 845.502,906.6942 " fill="none" id="UNIT_TESTS_RUNNING-to-UNIT_TESTS_FAILED" style="stroke:#181818;stroke-width:1.0;"/><polygon fill="#181818" points="841.83,911.4394,850.5014,906.7696,844.89,907.4851,844.1746,901.8737,841.83,911.4394" style="stroke:#181818;stroke-width:1.0;"/><text fill="#000000" font-family="sans-serif" font-size="13" lengthAdjust="spacing" textLength="90" x="857.5" y="878.1045">Unit tests failed</text></g><!--link UNIT_TESTS_FAILED to UNIT_TESTS_RUNNING--><g id="link_UNIT_TESTS_FAILED_UNIT_TESTS_RUNNING"><path d="M736.98,919.4994 C717.59,911.2694 699.1,899.2194 687.5,881.6094 C678.34,867.6894 678.6916,854.7453 682.8316,839.6653 " fill="none" id="UNIT_TESTS_FAILED-to-UNIT_TESTS_RUNNING" style="stroke:#181818;stroke-width:1.0;"/><polygon fill="#181818" points="684.42,833.8794,678.1801,841.4993,683.0963,838.701,685.8946,843.6172,684.42,833.8794" style="stroke:#181818;stroke-width:1.0;"/><text fill="#000000" font-family="sans-serif" font-size="13" lengthAdjust="spacing" textLength="154" x="688.5" y="878.1045">Developer retries unit tests</text></g><!--link UNIT_TESTS_FAILED to WORKFLOW_CANCELLED--><g id="link_UNIT_TESTS_FAILED_WORKFLOW_CANCELLED"><path d="M816.5,964.8094 C816.5,990.8394 816.5,1032.2794 816.5,1068.1094 C816.5,1068.1094 816.5,1068.1094 816.5,1856.1094 C816.5,1911.8294 767.2452,1942.4533 714.2652,1960.9333 " fill="none" id="UNIT_TESTS_FAILED-to-WORKFLOW_CANCELLED" style="stroke:#181818;stroke-width:1.0;"/><polygon fill="#181818" points="708.6,1962.9094,718.4153,1963.7221,713.321,1961.2626,715.7805,1956.1684,708.6,1962.9094" style="stroke:#181818;stroke-width:1.0;"/><text fill="#000000" font-family="sans-serif" font-size="13" lengthAdjust="spacing" textLength="180" x="817.5" y="1467.6045">Developer cancels the workflow</text></g><!--link UNIT_TESTS_RUNNING to INTEGRATION_TESTS_RUNNING--><g id="link_UNIT_TESTS_RUNNING_INTEGRATION_TESTS_RUNNING"><path d="M518.44,833.6494 C484.87,841.5694 456.22,851.4894 443.5,863.6094 C430.67,875.8394 426.4402,889.4347 424.7102,905.3047 " fill="none" id="UNIT_TESTS_RUNNING-to-INTEGRATION_TESTS_RUNNING" style="stroke:#181818;stroke-width:1.0;"/><polygon fill="#181818" points="424.06,911.2694,429.0118,902.7559,424.6018,906.2988,421.0589,901.8889,424.06,911.2694" style="stroke:#181818;stroke-width:1.0;"/><text fill="#000000" font-family="sans-serif" font-size="13" lengthAdjust="spacing" textLength="229" x="444.5" y="878.1045">Unit tests pass, trigger integration tests</text></g><!--link INTEGRATION_TESTS_RUNNING to INTEGRATION_TESTS_FAILED--><g id="link_INTEGRATION_TESTS_RUNNING_INTEGRATION_TESTS_FAILED"><path d="M415.01,964.8894 C411.67,980.1594 410.65,999.0894 420.5,1012.6094 C435.37,1033.0294 452.2228,1044.1289 476.1228,1052.4389 " fill="none" id="INTEGRATION_TESTS_RUNNING-to-INTEGRATION_TESTS_FAILED" style="stroke:#181818;stroke-width:1.0;"/><polygon fill="#181818" points="481.79,1054.4094,474.6028,1047.6755,477.0673,1052.7673,471.9755,1055.2318,481.79,1054.4094" style="stroke:#181818;stroke-width:1.0;"/><text fill="#000000" font-family="sans-serif" font-size="13" lengthAdjust="spacing" textLength="127" x="421.5" y="1009.1045">Integration tests failed</text></g><!--link INTEGRATION_TESTS_FAILED to INTEGRATION_TESTS_RUNNING--><g id="link_INTEGRATION_TESTS_FAILED_INTEGRATION_TESTS_RUNNING"><path d="M583.94,1042.5194 C577.62,1026.9394 567.65,1007.6094 553.5,994.6094 C540.13,982.3194 529.0731,975.0238 512.3631,967.2738 " fill="none" id="INTEGRATION_TESTS_FAILED-to-INTEGRATION_TESTS_RUNNING" style="stroke:#181818;stroke-width:1.0;"/><polygon fill="#181818" points="506.92,964.7494,513.4016,972.1648,511.4559,966.8531,516.7676,964.9074,506.92,964.7494" style="stroke:#181818;stroke-width:1.0;"/><text fill="#000000" font-family="sans-serif" font-size="13" lengthAdjust="spacing" textLength="193" x="569.5" y="1009.1045">Developer retries integration tests</text></g><!--link INTEGRATION_TESTS_FAILED to WORKFLOW_CANCELLED--><g id="link_INTEGRATION_TESTS_FAILED_WORKFLOW_CANCELLED"><path d="M598.51,1095.6494 C604.08,1121.5494 611.5,1162.8894 611.5,1199.1094 C611.5,1199.1094 611.5,1199.1094 611.5,1856.1094 C611.5,1891.9394 611.5,1927.3794 611.5,1953.4094 " fill="none" id="INTEGRATION_TESTS_FAILED-to-WORKFLOW_CANCELLED" style="stroke:#181818;stroke-width:1.0;"/><polygon fill="#181818" points="611.5,1959.4094,615.5,1950.4094,611.5,1954.4094,607.5,1950.4094,611.5,1959.4094" style="stroke:#181818;stroke-width:1.0;"/><text fill="#000000" font-family="sans-serif" font-size="13" lengthAdjust="spacing" textLength="180" x="612.5" y="1533.1045">Developer cancels the workflow</text></g><!--link INTEGRATION_TESTS_RUNNING to TESTS_PASSED--><g id="link_INTEGRATION_TESTS_RUNNING_TESTS_PASSED"><path d="M328.06,964.6994 C310.31,972.3694 292.86,982.1694 278.5,994.6094 C263.81,1007.3294 255.6784,1021.1523 248.9884,1036.8023 " fill="none" id="INTEGRATION_TESTS_RUNNING-to-TESTS_PASSED" style="stroke:#181818;stroke-width:1.0;"/><polygon fill="#181818" points="246.63,1042.3194,253.8457,1035.6161,248.5953,1037.7218,246.4896,1032.4715,246.63,1042.3194" style="stroke:#181818;stroke-width:1.0;"/><text fill="#000000" font-family="sans-serif" font-size="13" lengthAdjust="spacing" textLength="125" x="279.5" y="1009.1045">Integration tests pass</text></g><!--link TESTS_PASSED to IMAGE_PUBLISHING--><g id="link_TESTS_PASSED_IMAGE_PUBLISHING"><path d="M221.47,1095.6794 C216.63,1104.7794 211.95,1115.3194 209.5,1125.6094 C205.77,1141.2594 205.7564,1153.3484 207.3964,1167.6484 " fill="none" id="TESTS_PASSED-to-IMAGE_PUBLISHING" style="stroke:#181818;stroke-width:1.0;"/><polygon fill="#181818" points="208.08,1173.6094,211.0285,1164.2122,207.5103,1168.6419,203.0806,1165.1237,208.08,1173.6094" style="stroke:#181818;stroke-width:1.0;"/><text fill="#000000" font-family="sans-serif" font-size="13" lengthAdjust="spacing" textLength="374" x="210.5" y="1140.1045">Argo Workflows triggers GitHub Actions to publish Docker image</text></g><!--link IMAGE_PUBLISHING to DEPLOYMENT_PENDING--><g id="link_IMAGE_PUBLISHING_DEPLOYMENT_PENDING"><path d="M212.5,1226.9094 C212.5,1249.3994 212.5,1275.8694 212.5,1298.3594 " fill="none" id="IMAGE_PUBLISHING-to-DEPLOYMENT_PENDING" style="stroke:#181818;stroke-width:1.0;"/><polygon fill="#181818" points="212.5,1304.3594,216.5,1295.3594,212.5,1299.3594,208.5,1295.3594,212.5,1304.3594" style="stroke:#181818;stroke-width:1.0;"/><text fill="#000000" font-family="sans-serif" font-size="13" lengthAdjust="spacing" textLength="162" x="213.5" y="1271.1045">Argo CD detects new image</text></g><!--link DEPLOYMENT_PENDING to DEPLOYMENT_IN_PROGRESS--><g id="link_DEPLOYMENT_PENDING_DEPLOYMENT_IN_PROGRESS"><path d="M212.5,1357.9094 C212.5,1380.3994 212.5,1406.8694 212.5,1429.3594 " fill="none" id="DEPLOYMENT_PENDING-to-DEPLOYMENT_IN_PROGRESS" style="stroke:#181818;stroke-width:1.0;"/><polygon fill="#181818" points="212.5,1435.3594,216.5,1426.3594,212.5,1430.3594,208.5,1426.3594,212.5,1435.3594" style="stroke:#181818;stroke-width:1.0;"/><text fill="#000000" font-family="sans-serif" font-size="13" lengthAdjust="spacing" textLength="157" x="213.5" y="1402.1045">Argo CD starts deployment</text></g><!--link DEPLOYMENT_IN_PROGRESS to DEPLOYMENT_SUCCESSFUL--><g id="link_DEPLOYMENT_IN_PROGRESS_DEPLOYMENT_SUCCESSFUL"><path d="M212.5,1488.9094 C212.5,1511.3994 212.5,1537.8694 212.5,1560.3594 " fill="none" id="DEPLOYMENT_IN_PROGRESS-to-DEPLOYMENT_SUCCESSFUL" style="stroke:#181818;stroke-width:1.0;"/><polygon fill="#181818" points="212.5,1566.3594,216.5,1557.3594,212.5,1561.3594,208.5,1557.3594,212.5,1566.3594" style="stroke:#181818;stroke-width:1.0;"/><text fill="#000000" font-family="sans-serif" font-size="13" lengthAdjust="spacing" textLength="126" x="213.5" y="1533.1045">Deployment complete</text></g><!--link DEPLOYMENT_SUCCESSFUL to BA_TESTS_RUNNING--><g id="link_DEPLOYMENT_SUCCESSFUL_BA_TESTS_RUNNING"><path d="M212.5,1619.9094 C212.5,1642.3994 212.5,1668.8694 212.5,1691.3594 " fill="none" id="DEPLOYMENT_SUCCESSFUL-to-BA_TESTS_RUNNING" style="stroke:#181818;stroke-width:1.0;"/><polygon fill="#181818" points="212.5,1697.3594,216.5,1688.3594,212.5,1692.3594,208.5,1688.3594,212.5,1697.3594" style="stroke:#181818;stroke-width:1.0;"/><text fill="#000000" font-family="sans-serif" font-size="13" lengthAdjust="spacing" textLength="193" x="213.5" y="1664.1045">Argo Workflows triggers BA tests</text></g><!--link BA_TESTS_RUNNING to BA_TESTS_FAILED--><g id="link_BA_TESTS_RUNNING_BA_TESTS_FAILED"><path d="M311.88,1748.3894 C331.81,1756.2894 351.51,1766.7694 367.5,1780.6094 C382.14,1793.2794 389.9422,1807.2364 396.1422,1822.9864 " fill="none" id="BA_TESTS_RUNNING-to-BA_TESTS_FAILED" style="stroke:#181818;stroke-width:1.0;"/><polygon fill="#181818" points="398.34,1828.5694,398.7654,1818.7297,396.5085,1823.9169,391.3214,1821.66,398.34,1828.5694" style="stroke:#181818;stroke-width:1.0;"/><text fill="#000000" font-family="sans-serif" font-size="13" lengthAdjust="spacing" textLength="85" x="383.5" y="1795.1045">BA tests failed</text></g><!--link BA_TESTS_FAILED to BA_TESTS_RUNNING--><g id="link_BA_TESTS_FAILED_BA_TESTS_RUNNING"><path d="M332.85,1843.1594 C282.46,1833.9794 222.07,1819.0794 206.5,1798.6094 C196.27,1785.1594 196.5909,1771.8224 200.8409,1756.4524 " fill="none" id="BA_TESTS_FAILED-to-BA_TESTS_RUNNING" style="stroke:#181818;stroke-width:1.0;"/><polygon fill="#181818" points="202.44,1750.6694,196.1861,1758.2778,201.1074,1755.4885,203.8967,1760.4099,202.44,1750.6694" style="stroke:#181818;stroke-width:1.0;"/><text fill="#000000" font-family="sans-serif" font-size="13" lengthAdjust="spacing" textLength="151" x="207.5" y="1795.1045">Developer retries BA tests</text></g><!--link BA_TESTS_FAILED to WORKFLOW_CANCELLED--><g id="link_BA_TESTS_FAILED_WORKFLOW_CANCELLED"><path d="M397.84,1881.7294 C394.35,1897.1194 393.23,1916.2394 403.5,1929.6094 C417.67,1948.0594 461.3695,1960.5485 508.5595,1969.6885 " fill="none" id="BA_TESTS_FAILED-to-WORKFLOW_CANCELLED" style="stroke:#181818;stroke-width:1.0;"/><polygon fill="#181818" points="514.45,1970.8294,506.3748,1965.191,509.5412,1969.8786,504.8536,1973.045,514.45,1970.8294" style="stroke:#181818;stroke-width:1.0;"/><text fill="#000000" font-family="sans-serif" font-size="13" lengthAdjust="spacing" textLength="180" x="404.5" y="1926.1045">Developer cancels the workflow</text></g><!--link BA_TESTS_RUNNING to BA_TESTS_PASSED--><g id="link_BA_TESTS_RUNNING_BA_TESTS_PASSED"><path d="M118.63,1750.7294 C105.52,1758.2794 93.73,1768.0294 85.5,1780.6094 C76.41,1794.4994 76.1218,1807.3623 79.2218,1822.4423 " fill="none" id="BA_TESTS_RUNNING-to-BA_TESTS_PASSED" style="stroke:#181818;stroke-width:1.0;"/><polygon fill="#181818" points="80.43,1828.3194,82.5358,1818.6983,79.4232,1823.4218,74.6997,1820.3092,80.43,1828.3194" style="stroke:#181818;stroke-width:1.0;"/><text fill="#000000" font-family="sans-serif" font-size="13" lengthAdjust="spacing" textLength="83" x="86.5" y="1795.1045">BA tests pass</text></g><!--link BA_TESTS_PASSED to READY_FOR_MERGE--><g id="link_BA_TESTS_PASSED_READY_FOR_MERGE"><path d="M88.5,1881.9094 C88.5,1904.3994 88.5,1930.8694 88.5,1953.3594 " fill="none" id="BA_TESTS_PASSED-to-READY_FOR_MERGE" style="stroke:#181818;stroke-width:1.0;"/><polygon fill="#181818" points="88.5,1959.3594,92.5,1950.3594,88.5,1954.3594,84.5,1950.3594,88.5,1959.3594" style="stroke:#181818;stroke-width:1.0;"/><text fill="#000000" font-family="sans-serif" font-size="13" lengthAdjust="spacing" textLength="193" x="89.5" y="1926.1045">Workflow completes successfully</text></g><!--SRC=[fLPDRwCm5BppAvxsiXzgjVSzh4I1fgYK822ggjKAKN28LGSGDedoxzVcAu1DabLFLPCtu_7ulNbXc144Nm8MPpZFm4GbAKvxb3Cmx9-62Huk4S4vWWEEGQ-o0bwBwcDBYYC53c88J1ndLRp_ecbVENmhQgduWchD7x1Dnu9V49meGtl0571Aq1qSOyp4YTkYWZXXkCXxmElQVtvqrg-HPxccxQwY8DJza5DuFYGLuYNf57xi58bpApPdQT2SXXFCz3VbWgGdwA2U7tbhnpRU8kF9CfwLs6I7aW-1vQBAWk3a984VTTknp5PtMzAYO1jZWbAftjE3G5bVnfGEzHlN3gFG2i8WyZUksufROVPKluFU-WXLdUT2MvrZ1lmb68LlhC9PXYgKmljfTfdlClMWVNEccCYstT1Q-NfehzrRrU2S8TufuiF_42KVD6Yp9SA9nBPwS5KdfAkQ-6c_w2ihyZOFZXqyAVMNzJl1TDUCHv5ye0hmFivGXpSjprc_lLXksFThtonyUbB4KDAqM8wEIp3RZJn_lVAj89X0nIJsq0EgA1SZWuEDON3WuyRXsD7q9iM-9Fpq56YT98ZIRKr8twCFklHci_Rkt-n1RpsR0uStw0kcrWzrW_j3tSHytz9DFYXhFtgn_9NLzZwF23xbwQcPxJsg1i-6aJPqrx2SLa2l6P8uJn0H6iv1n7O8ci7-y-CltD__Ri98Qn99_BUOD2Ow85AK_AdRmA4GDy_W-Te2Pa8tYfmpKvCsz1nMHynsWF83hegyUR8ytYC-96NDD9b9yD-IIzr4qNc8Q0hmb5CHLzsRIZKtUbSXMf03DmzJMWiFyvH_nXMYimtNTIbYiUiXgKO0bVcuPD9iqbaX6dyKcvg2RNR8XQIKgnO5Zarh3LABK3t0U1f6ZTkC0sr6O31xuJgNmdnqBM7xNM-U7EVQCetwaEj1leYvfbhsynQvdtJtylrdWIZVMTYhJQgQMyhxwVPkxbRNT6z9ZEAO6zOO7IqnHVcCHRtLkX1CXqMbBK1cRDVMdAQk5IpNbzrWuB3j9Co4Q77vpIiMZfURKpxuawru-GBghQpDlnSOUKEV5sxdFPt-nFW7]--></g></svg>