<?xml version="1.0" encoding="us-ascii" standalone="no"?><svg xmlns="http://www.w3.org/2000/svg" xmlns:xlink="http://www.w3.org/1999/xlink" contentStyleType="text/css" height="1070px" preserveAspectRatio="none" style="width:903px;height:1070px;background:#FFFFFF;" version="1.1" viewBox="0 0 903 1070" width="903px" zoomAndPan="magnify"><defs/><g><text fill="#000000" font-family="sans-serif" font-size="14" font-weight="bold" lengthAdjust="spacing" textLength="356" x="272.125" y="34.5332">Automated DB Migration Pipeline - Activity Diagram</text><ellipse cx="331.75" cy="58.6094" fill="#222222" rx="10" ry="10" style="stroke:#222222;stroke-width:1.0;"/><rect fill="#F1F1F1" height="35.0938" rx="12.5" ry="12.5" style="stroke:#181818;stroke-width:0.5;" width="123" x="270.25" y="88.6094"/><text fill="#000000" font-family="sans-serif" font-size="12" lengthAdjust="spacing" textLength="103" x="280.25" y="111.0664">Modify your entities</text><path d="M412.75,148.0742 L412.75,157.25 L392.75,161.25 L412.75,165.25 L412.75,174.4258 A0,0 0 0 0 412.75,174.4258 L668.75,174.4258 A0,0 0 0 0 668.75,174.4258 L668.75,158.0742 L658.75,148.0742 L412.75,148.0742 A0,0 0 0 0 412.75,148.0742 " fill="#FEFFDD" style="stroke:#181818;stroke-width:0.5;"/><path d="M658.75,148.0742 L658.75,158.0742 L668.75,158.0742 L658.75,148.0742 " fill="#FEFFDD" style="stroke:#181818;stroke-width:0.5;"/><text fill="#000000" font-family="sans-serif" font-size="13" lengthAdjust="spacing" textLength="235" x="418.75" y="166.5693">Use the .NET CLI to create the migration</text><rect fill="#F1F1F1" height="35.0938" rx="12.5" ry="12.5" style="stroke:#181818;stroke-width:0.5;" width="122" x="270.75" y="143.7031"/><text fill="#000000" font-family="sans-serif" font-size="12" lengthAdjust="spacing" textLength="102" x="280.75" y="166.1602">Create a migration</text><rect fill="#F1F1F1" height="35.0938" rx="12.5" ry="12.5" style="stroke:#181818;stroke-width:0.5;" width="141" x="261.25" y="198.7969"/><text fill="#000000" font-family="sans-serif" font-size="12" lengthAdjust="spacing" textLength="121" x="271.25" y="221.2539">Commit your changes</text><path d="M423.25,250.0859 L423.25,267.4375 L403.25,271.4375 L423.25,275.4375 L423.25,292.7891 A0,0 0 0 0 423.25,292.7891 L891.25,292.7891 A0,0 0 0 0 891.25,292.7891 L891.25,260.0859 L881.25,250.0859 L423.25,250.0859 A0,0 0 0 0 423.25,250.0859 " fill="#FEFFDD" style="stroke:#181818;stroke-width:0.5;"/><path d="M881.25,250.0859 L881.25,260.0859 L891.25,260.0859 L881.25,250.0859 " fill="#FEFFDD" style="stroke:#181818;stroke-width:0.5;"/><text fill="#000000" font-family="sans-serif" font-size="13" lengthAdjust="spacing" textLength="443" x="429.25" y="268.5811">That's it! Once the PR is created, the automated pipeline will handle the rest.</text><text fill="#000000" font-family="sans-serif" font-size="13" lengthAdjust="spacing" textLength="277" x="429.25" y="284.9326">(TODO: Workflow is currently on manual trigger)</text><rect fill="#F1F1F1" height="35.0938" rx="12.5" ry="12.5" style="stroke:#181818;stroke-width:0.5;" width="143" x="260.25" y="253.8906"/><text fill="#000000" font-family="sans-serif" font-size="12" lengthAdjust="spacing" textLength="123" x="270.25" y="276.3477">Submit a Pull Request</text><rect fill="#F1F1F1" height="35.0938" rx="12.5" ry="12.5" style="stroke:#181818;stroke-width:0.5;" width="186" x="238.75" y="312.7891"/><text fill="#000000" font-family="sans-serif" font-size="12" lengthAdjust="spacing" textLength="166" x="248.75" y="335.2461">GitHub Workflow triggers build</text><rect fill="#F1F1F1" height="35.0938" rx="12.5" ry="12.5" style="stroke:#181818;stroke-width:0.5;" width="196" x="233.75" y="367.8828"/><text fill="#000000" font-family="sans-serif" font-size="12" lengthAdjust="spacing" textLength="176" x="243.75" y="390.3398">Build and publish Docker image</text><rect fill="#F1F1F1" height="35.0938" rx="12.5" ry="12.5" style="stroke:#181818;stroke-width:0.5;" width="169" x="247.25" y="422.9766"/><text fill="#000000" font-family="sans-serif" font-size="12" lengthAdjust="spacing" textLength="149" x="257.25" y="445.4336">Flux detects new image tag</text><rect fill="#F1F1F1" height="35.0938" rx="12.5" ry="12.5" style="stroke:#181818;stroke-width:0.5;" width="174" x="244.75" y="478.0703"/><text fill="#000000" font-family="sans-serif" font-size="12" lengthAdjust="spacing" textLength="154" x="254.75" y="500.5273">Update application manifest</text><rect fill="#F1F1F1" height="35.0938" rx="12.5" ry="12.5" style="stroke:#181818;stroke-width:0.5;" width="208" x="227.75" y="533.1641"/><text fill="#000000" font-family="sans-serif" font-size="12" lengthAdjust="spacing" textLength="188" x="237.75" y="555.6211">ArgoCD detects manifest changes</text><polygon fill="#F1F1F1" points="287.75,588.2578,375.75,588.2578,387.75,600.2578,375.75,612.2578,287.75,612.2578,275.75,600.2578,287.75,588.2578" style="stroke:#181818;stroke-width:0.5;"/><text fill="#000000" font-family="sans-serif" font-size="11" lengthAdjust="spacing" textLength="88" x="287.75" y="604.7588">Helm Hook exists?</text><rect fill="#F1F1F1" height="35.0938" rx="12.5" ry="12.5" style="stroke:#181818;stroke-width:0.5;" width="299" x="21.5" y="622.2578"/><text fill="#000000" font-family="sans-serif" font-size="12" lengthAdjust="spacing" textLength="279" x="31.5" y="644.7148">[yes]-&gt; :ArgoCD waits for migration job to complete;</text><rect fill="#F1F1F1" height="35.0938" rx="12.5" ry="12.5" style="stroke:#181818;stroke-width:0.5;" width="184" x="79" y="677.3516"/><text fill="#000000" font-family="sans-serif" font-size="12" lengthAdjust="spacing" textLength="164" x="89" y="699.8086">ArgoCD deploys migration job</text><rect fill="#F1F1F1" height="35.0938" rx="12.5" ry="12.5" style="stroke:#181818;stroke-width:0.5;" width="320" x="11" y="732.4453"/><text fill="#000000" font-family="sans-serif" font-size="12" lengthAdjust="spacing" textLength="300" x="21" y="754.9023">Migration job runs EF Core migrations on the database</text><rect fill="#F1F1F1" height="35.0938" rx="12.5" ry="12.5" style="stroke:#181818;stroke-width:0.5;" width="151" x="95.5" y="787.5391"/><text fill="#000000" font-family="sans-serif" font-size="12" lengthAdjust="spacing" textLength="131" x="105.5" y="809.9961">Migration job completes</text><rect fill="#F1F1F1" height="35.0938" rx="12.5" ry="12.5" style="stroke:#181818;stroke-width:0.5;" width="283" x="351" y="622.2578"/><text fill="#000000" font-family="sans-serif" font-size="12" lengthAdjust="spacing" textLength="263" x="361" y="644.7148">[no]-&gt; :No Helm Hook detected, proceed directly;</text><polygon fill="#F1F1F1" points="331.75,828.6328,343.75,840.6328,331.75,852.6328,319.75,840.6328,331.75,828.6328" style="stroke:#181818;stroke-width:0.5;"/><rect fill="#F1F1F1" height="35.0938" rx="12.5" ry="12.5" style="stroke:#181818;stroke-width:0.5;" width="244" x="209.75" y="872.6328"/><text fill="#000000" font-family="sans-serif" font-size="12" lengthAdjust="spacing" textLength="224" x="219.75" y="895.0898">ArgoCD deploys updated application pod</text><rect fill="#F1F1F1" height="35.0938" rx="12.5" ry="12.5" style="stroke:#181818;stroke-width:0.5;" width="326" x="168.75" y="927.7266"/><text fill="#000000" font-family="sans-serif" font-size="12" lengthAdjust="spacing" textLength="306" x="178.75" y="950.1836">Kubernetes cluster is updated with the latest application</text><rect fill="#F1F1F1" height="35.0938" rx="12.5" ry="12.5" style="stroke:#181818;stroke-width:0.5;" width="343" x="160.25" y="982.8203"/><text fill="#000000" font-family="sans-serif" font-size="12" lengthAdjust="spacing" textLength="323" x="170.25" y="1005.2773">Update complete - application and database are up-to-date</text><ellipse cx="331.75" cy="1048.9141" fill="none" rx="11" ry="11" style="stroke:#222222;stroke-width:1.0;"/><ellipse cx="331.75" cy="1048.9141" fill="#222222" rx="6" ry="6" style="stroke:#222222;stroke-width:1.0;"/><line style="stroke:#181818;stroke-width:1.0;" x1="331.75" x2="331.75" y1="68.6094" y2="88.6094"/><polygon fill="#181818" points="327.75,78.6094,331.75,88.6094,335.75,78.6094,331.75,82.6094" style="stroke:#181818;stroke-width:1.0;"/><line style="stroke:#181818;stroke-width:1.0;" x1="331.75" x2="331.75" y1="123.7031" y2="143.7031"/><polygon fill="#181818" points="327.75,133.7031,331.75,143.7031,335.75,133.7031,331.75,137.7031" style="stroke:#181818;stroke-width:1.0;"/><line style="stroke:#181818;stroke-width:1.0;" x1="331.75" x2="331.75" y1="178.7969" y2="198.7969"/><polygon fill="#181818" points="327.75,188.7969,331.75,198.7969,335.75,188.7969,331.75,192.7969" style="stroke:#181818;stroke-width:1.0;"/><line style="stroke:#181818;stroke-width:1.0;" x1="331.75" x2="331.75" y1="233.8906" y2="253.8906"/><polygon fill="#181818" points="327.75,243.8906,331.75,253.8906,335.75,243.8906,331.75,247.8906" style="stroke:#181818;stroke-width:1.0;"/><line style="stroke:#181818;stroke-width:1.0;" x1="331.75" x2="331.75" y1="288.9844" y2="312.7891"/><polygon fill="#181818" points="327.75,302.7891,331.75,312.7891,335.75,302.7891,331.75,306.7891" style="stroke:#181818;stroke-width:1.0;"/><line style="stroke:#181818;stroke-width:1.0;" x1="331.75" x2="331.75" y1="347.8828" y2="367.8828"/><polygon fill="#181818" points="327.75,357.8828,331.75,367.8828,335.75,357.8828,331.75,361.8828" style="stroke:#181818;stroke-width:1.0;"/><line style="stroke:#181818;stroke-width:1.0;" x1="331.75" x2="331.75" y1="402.9766" y2="422.9766"/><polygon fill="#181818" points="327.75,412.9766,331.75,422.9766,335.75,412.9766,331.75,416.9766" style="stroke:#181818;stroke-width:1.0;"/><line style="stroke:#181818;stroke-width:1.0;" x1="331.75" x2="331.75" y1="458.0703" y2="478.0703"/><polygon fill="#181818" points="327.75,468.0703,331.75,478.0703,335.75,468.0703,331.75,472.0703" style="stroke:#181818;stroke-width:1.0;"/><line style="stroke:#181818;stroke-width:1.0;" x1="331.75" x2="331.75" y1="513.1641" y2="533.1641"/><polygon fill="#181818" points="327.75,523.1641,331.75,533.1641,335.75,523.1641,331.75,527.1641" style="stroke:#181818;stroke-width:1.0;"/><line style="stroke:#181818;stroke-width:1.0;" x1="171" x2="171" y1="657.3516" y2="677.3516"/><polygon fill="#181818" points="167,667.3516,171,677.3516,175,667.3516,171,671.3516" style="stroke:#181818;stroke-width:1.0;"/><line style="stroke:#181818;stroke-width:1.0;" x1="171" x2="171" y1="712.4453" y2="732.4453"/><polygon fill="#181818" points="167,722.4453,171,732.4453,175,722.4453,171,726.4453" style="stroke:#181818;stroke-width:1.0;"/><line style="stroke:#181818;stroke-width:1.0;" x1="171" x2="171" y1="767.5391" y2="787.5391"/><polygon fill="#181818" points="167,777.5391,171,787.5391,175,777.5391,171,781.5391" style="stroke:#181818;stroke-width:1.0;"/><line style="stroke:#181818;stroke-width:1.0;" x1="275.75" x2="171" y1="600.2578" y2="600.2578"/><line style="stroke:#181818;stroke-width:1.0;" x1="171" x2="171" y1="600.2578" y2="622.2578"/><polygon fill="#181818" points="167,612.2578,171,622.2578,175,612.2578,171,616.2578" style="stroke:#181818;stroke-width:1.0;"/><line style="stroke:#181818;stroke-width:1.0;" x1="387.75" x2="492.5" y1="600.2578" y2="600.2578"/><line style="stroke:#181818;stroke-width:1.0;" x1="492.5" x2="492.5" y1="600.2578" y2="622.2578"/><polygon fill="#181818" points="488.5,612.2578,492.5,622.2578,496.5,612.2578,492.5,616.2578" style="stroke:#181818;stroke-width:1.0;"/><line style="stroke:#181818;stroke-width:1.0;" x1="171" x2="171" y1="822.6328" y2="840.6328"/><line style="stroke:#181818;stroke-width:1.0;" x1="171" x2="319.75" y1="840.6328" y2="840.6328"/><polygon fill="#181818" points="309.75,836.6328,319.75,840.6328,309.75,844.6328,313.75,840.6328" style="stroke:#181818;stroke-width:1.0;"/><line style="stroke:#181818;stroke-width:1.0;" x1="492.5" x2="492.5" y1="657.3516" y2="840.6328"/><line style="stroke:#181818;stroke-width:1.0;" x1="492.5" x2="343.75" y1="840.6328" y2="840.6328"/><polygon fill="#181818" points="353.75,836.6328,343.75,840.6328,353.75,844.6328,349.75,840.6328" style="stroke:#181818;stroke-width:1.0;"/><line style="stroke:#181818;stroke-width:1.0;" x1="331.75" x2="331.75" y1="568.2578" y2="588.2578"/><polygon fill="#181818" points="327.75,578.2578,331.75,588.2578,335.75,578.2578,331.75,582.2578" style="stroke:#181818;stroke-width:1.0;"/><line style="stroke:#181818;stroke-width:1.0;" x1="331.75" x2="331.75" y1="852.6328" y2="872.6328"/><polygon fill="#181818" points="327.75,862.6328,331.75,872.6328,335.75,862.6328,331.75,866.6328" style="stroke:#181818;stroke-width:1.0;"/><line style="stroke:#181818;stroke-width:1.0;" x1="331.75" x2="331.75" y1="907.7266" y2="927.7266"/><polygon fill="#181818" points="327.75,917.7266,331.75,927.7266,335.75,917.7266,331.75,921.7266" style="stroke:#181818;stroke-width:1.0;"/><line style="stroke:#181818;stroke-width:1.0;" x1="331.75" x2="331.75" y1="962.8203" y2="982.8203"/><polygon fill="#181818" points="327.75,972.8203,331.75,982.8203,335.75,972.8203,331.75,976.8203" style="stroke:#181818;stroke-width:1.0;"/><line style="stroke:#181818;stroke-width:1.0;" x1="331.75" x2="331.75" y1="1017.9141" y2="1037.9141"/><polygon fill="#181818" points="327.75,1027.9141,331.75,1037.9141,335.75,1027.9141,331.75,1031.9141" style="stroke:#181818;stroke-width:1.0;"/><!--SRC=[RLF1Rjim3BtxAxZJMc3f1yJ0XZHfbs5B4tGjTXXsa6tQvY9BdaGjzT-FikFO0NOoJF7nyRqdCR56M0MsZM8iO7CFEwgSOh863jIY9eEmW5NEz9UuWmqfEMwInBDod2JBdIsexA2pmG4Q9YRqQR9SEvI1eA0PnwM9iL9nLDMSl7e4hX7kdXvUOFtj2x25V834yWMKe2aWueHfRPk6U63AQsMgdkXxo69LmI5e3S_u9w3dD9cJlTIAttiWVWTxamyCXsSWVwOiFlGbTN6X7OMVI6OALQ47b9FPTv3SlEmt-oNyiEvOQdlg9mNdHBxkG8nhb0bA0mjzXUvsBk8pyJPa4_JSuo4Bf0lHSn-_89JGXaoJhs5ZyoCwe4PLACAMZpgyGO6CENimU1fEW5KbyDUsw7rlMqtv4ADiG-LWodBbAhlUND3ZqUGdbN2pHTt0rjeZu1jvzfzketYJ02n-TkX_BJx2EEYaICQKrasHmM-RzN7QfjN2amfkucsrxVnrSz-mkuAxO3myFCBQkjbbyD7R68D8L9do-1_ao2fIK7liTpQsN_d9mgHiS216tpgReuHUa9EAxj8O5vLpiuQbGszjSULjQsDcNqE6paHMo7Nm7DEQ-a_4TR-sbb_nUeQFaPmJ6nUNnpOdY1TXb0jAt0ZjWkqYGjBu26tx3m00]--></g></svg>